PathFileType	4	(X/Y/Z)	/Users/itak/Documents/Research/Walk-IL/dataset/trc/00070_00006.trc
DataRate	CameraRate	NumFrames	NumMarkers	Units	OrigDataRate	OrigDataStartFrame	OrigNumFrames
100.000000	100.000000	4	53	mm	100.000000	357	715
Frame#	Time	RPSI			LPSI			L3			STRN			T10			C7			CLAV			RBAK			LBAK			LSHO			LUPA			LAEL			LAOL			LWTS			LWPS			LFRA			LIFD			LHPS			LHTS			RSHO			RUPA			RAEL			RAOL			RWTS			RWPS			RFRA			RIFD			RHTS			RHPS			RBHD			LFHD			RFHD			LBHD			LHIP			RHIP			RASI			LASI			LKNE			LTHI			LANK			LTIP			LTOE			LMT1			LMT5			LHEE			RKNE			RTHI			RANK			RTIP			RTOE			RMT1			RMT5			RHEE			
		X1	Y1	Z1	X2	Y2	Z2	X3	Y3	Z3	X4	Y4	Z4	X5	Y5	Z5	X6	Y6	Z6	X7	Y7	Z7	X8	Y8	Z8	X9	Y9	Z9	X10	Y10	Z10	X11	Y11	Z11	X12	Y12	Z12	X13	Y13	Z13	X14	Y14	Z14	X15	Y15	Z15	X16	Y16	Z16	X17	Y17	Z17	X18	Y18	Z18	X19	Y19	Z19	X20	Y20	Z20	X21	Y21	Z21	X22	Y22	Z22	X23	Y23	Z23	X24	Y24	Z24	X25	Y25	Z25	X26	Y26	Z26	X27	Y27	Z27	X28	Y28	Z28	X29	Y29	Z29	X30	Y30	Z30	X31	Y31	Z31	X32	Y32	Z32	X33	Y33	Z33	X34	Y34	Z34	X35	Y35	Z35	X36	Y36	Z36	X37	Y37	Z37	X38	Y38	Z38	X39	Y39	Z39	X40	Y40	Z40	X41	Y41	Z41	X42	Y42	Z42	X43	Y43	Z43	X44	Y44	Z44	X45	Y45	Z45	X46	Y46	Z46	X47	Y47	Z47	X48	Y48	Z48	X49	Y49	Z49	X50	Y50	Z50	X51	Y51	Z51	X52	Y52	Z52	X53	Y53	Z53	

358	3.57	-14.42063140869141	1022.028137207031	-278.1951293945312	-60.93350219726562	1018.947814941406	-443.5033874511719	-40.16576766967773	1089.326049804688	-373.1382751464844	220.9281005859375	1274.328857421875	-426.5924682617188	-45.70263290405273	1219.229736328125	-387.5154418945312	22.95890617370605	1483.899536132812	-403.2017822265625	195.9160919189453	1389.888427734375	-423.7726745605469	-36.53421401977539	1348.963256835938	-320.84912109375	-16.16208839416504	1448.242553710938	-496.2468566894531	72.99981689453125	1453.865234375	-582.7974853515625	29.78964805603027	1337.909057617188	-665.0758666992188	25.1089916229248	1129.008544921875	-712.7118530273438	-12.88459205627441	1103.732543945312	-615.8676147460938	136.6169128417969	891.4105834960938	-702.735595703125	64.05039978027344	882.3637084960938	-744.505859375	43.41345596313477	1022.0234375	-736.668701171875	156.2588653564453	707.3577880859375	-705.7176513671875	100.3146667480469	804.3760986328125	-759.7266845703125	161.5032806396484	812.7418823242188	-723.0012817382812	102.4874649047852	1446.322875976562	-238.7436981201172	89.13502502441406	1383.856201171875	-173.9306030273438	22.51337814331055	1136.138671875	-114.7878723144531	38.14097595214844	1102.878051757812	-207.3089904785156	169.9277954101562	887.0859375	-150.5888671875	102.7832260131836	865.8529052734375	-99.93880462646484	33.09332275390625	1051.515625	-100.8515167236328	179.2786560058594	706.2554321289062	-187.2939300537109	202.1563873291016	787.7691040039062	-154.5708770751953	145.5634155273438	777.4031372070312	-101.5032958984375	115.6309127807617	1669.061767578125	-490.3736267089844	213.0556640625	1672.994873046875	-296.7032165527344	273.0683288574219	1690.686157226562	-407.6949157714844	59.36431121826172	1643.42138671875	-367.9302062988281	16.27667999267578	958.2755737304688	-557.61279296875	71.00290679931641	953.6611328125	-214.0969696044922	183.5562896728516	974.5912475585938	-268.2700500488281	137.7518920898438	965.3306884765625	-532.4348754882812	125.7250137329102	501.5303039550781	-553.1012573242188	79.19558715820312	640.6051635742188	-575.1358032226562	-6.405191898345947	44.46782302856445	-589.0689697265625	55.12137603759766	262.3595275878906	-584.6573486328125	199.2025299072266	39.33864974975586	-597.7177124023438	155.6134033203125	41.68101501464844	-540.11279296875	92.89371490478516	33.82125854492188	-635.2681274414062	-53.42912292480469	43.22788238525391	-510.4359741210938	301.8485717773438	543.9376220703125	-303.4266662597656	204.0577850341797	796.5636596679688	-246.1720123291016	20.14898300170898	138.8536529541016	-296.328125	250.4707641601562	424.0422058105469	-297.98388671875	206.0115509033203	70.60030364990234	-367.4893493652344	144.8000335693359	87.22301483154297	-396.455810546875	135.4060821533203	97.70972442626953	-298.9976501464844	-28.36698150634766	159.9024353027344	-345.9803161621094	
359	3.58	-9.004250526428223	1022.262084960938	-281.2544555664062	-53.50673675537109	1019.223327636719	-446.90283203125	-33.45465087890625	1089.542358398438	-376.7393188476562	228.5880889892578	1274.282470703125	-426.335693359375	-38.64415740966797	1219.322387695312	-391.5804138183594	30.46754264831543	1483.9423828125	-406.187744140625	203.7116851806641	1389.84228515625	-423.8457946777344	-30.44859504699707	1349.0537109375	-324.8813781738281	-7.116701602935791	1448.282470703125	-499.9079895019531	83.48246765136719	1454.032348632812	-584.8701782226562	42.00871658325195	1338.14453125	-668.1155395507812	39.18988418579102	1129.34521484375	-716.4369506835938	-0.3804884552955627	1103.612060546875	-620.4652709960938	153.2386474609375	893.0426635742188	-704.390625	81.64012145996094	883.1419677734375	-747.4981689453125	59.16484069824219	1022.549560546875	-740.12744140625	175.5924530029297	709.4168701171875	-707.3115844726562	119.2293167114258	805.709228515625	-762.173828125	179.6425170898438	814.9179077148438	-724.364990234375	107.2650680541992	1446.286865234375	-240.5152587890625	92.75016784667969	1383.922607421875	-175.9423065185547	24.4306583404541	1136.6728515625	-117.3637390136719	41.89405059814453	1103.011840820312	-209.4038848876953	171.7914276123047	887.0173950195312	-149.5688171386719	103.7699279785156	866.2435302734375	-99.94064331054688	34.58219909667969	1052.082885742188	-102.8950119018555	181.0348358154297	706.0597534179688	-185.4886932373047	203.7134704589844	787.585205078125	-152.7006530761719	146.3451843261719	777.6292724609375	-100.4830017089844	124.3006210327148	1669.068115234375	-491.5930480957031	219.1084899902344	1672.901977539062	-296.6697998046875	280.6432495117188	1690.678100585938	-406.8296203613281	66.43498229980469	1643.370361328125	-369.9414672851562	24.70801734924316	958.3197021484375	-560.0886840820312	75.749267578125	954.0487670898438	-216.1865692138672	188.8968658447266	974.841064453125	-269.0962219238281	146.0301971435547	965.1864624023438	-533.7144165039062	128.8355102539062	500.6837158203125	-554.0884399414062	84.05223083496094	640.2955322265625	-576.4640502929688	-6.239583492279053	44.61879730224609	-588.8982543945312	56.51496124267578	262.1414489746094	-584.9113159179688	199.3402252197266	39.16795349121094	-597.7525634765625	155.7571258544922	41.62104034423828	-540.0953979492188	92.96324157714844	33.78037261962891	-635.2738647460938	-53.19819641113281	43.47125244140625	-510.2363586425781	311.5134582519531	546.5408935546875	-302.460205078125	210.5155944824219	798.2428588867188	-246.2157135009766	45.99170303344727	129.2188873291016	-305.4415283203125	263.5907287597656	424.1046447753906	-298.8131408691406	237.2068939208984	71.01631164550781	-370.8609924316406	176.0911865234375	84.46146392822266	-401.7387390136719	163.0668334960938	94.00518798828125	-304.5772094726562	-2.029330492019653	148.0810089111328	-356.4595031738281	
360	3.59	-3.528425931930542	1022.306396484375	-284.194091796875	-46.03554153442383	1019.348449707031	-450.152099609375	-26.66559982299805	1089.595581054688	-380.1443481445312	236.2487182617188	1274.034057617188	-425.9759826660156	-31.51429748535156	1219.26123046875	-395.427490234375	38.03575134277344	1483.828857421875	-409.0115356445312	211.5220031738281	1389.590576171875	-423.8098449707031	-24.23793411254883	1348.985107421875	-328.73974609375	1.999606370925903	1448.176147460938	-503.3694458007812	93.97183990478516	1453.998657226562	-586.7491455078125	54.21557235717773	1338.196166992188	-670.9122314453125	53.21033477783203	1129.504272460938	-719.879638671875	12.08187007904053	1103.311279296875	-624.809814453125	169.8328094482422	894.5908813476562	-705.6241455078125	99.22478485107422	883.7636108398438	-750.0308837890625	74.87422180175781	1022.912231445312	-743.2372436523438	195.0930786132812	711.4717407226562	-708.3165893554688	138.2122650146484	806.9356079101562	-764.0972290039062	197.8028106689453	817.0440063476562	-725.216064453125	112.1676559448242	1446.074829101562	-242.1864776611328	96.49495697021484	1383.806396484375	-177.8731994628906	26.54234504699707	1137.022094726562	-119.8499298095703	45.76998901367188	1102.966186523438	-211.3735198974609	173.7250366210938	886.7775268554688	-148.5487976074219	104.8761978149414	866.4609375	-99.92499542236328	36.25365829467773	1052.470703125	-104.8640441894531	182.8487243652344	705.6985473632812	-183.677490234375	205.3263702392578	787.2350463867188	-150.8376922607422	147.1828002929688	777.6826782226562	-99.48660278320312	132.9910736083984	1668.900268554688	-492.6612243652344	225.1583862304688	1672.632202148438	-296.5743408203125	288.2075500488281	1690.509155273438	-405.8334045410156	73.5579833984375	1643.112426757812	-371.8203125	33.18251037597656	958.254638671875	-562.4314575195312	80.60413360595703	954.173828125	-218.2238159179688	194.3287506103516	974.8408203125	-269.8530883789062	154.3232574462891	964.9296264648438	-534.8740234375	132.0621337890625	499.8039855957031	-555.04052734375	88.98959350585938	639.9310913085938	-577.7159423828125	-6.071670532226562	44.78757476806641	-588.7256469726562	57.95486068725586	261.9166564941406	-585.1490478515625	199.4881134033203	38.98897933959961	-597.7943725585938	155.9041137695312	41.55183410644531	-540.0751342773438	93.04103088378906	33.74555206298828	-635.26953125	-53.01475524902344	43.76625823974609	-510.0406799316406	320.4278869628906	548.6073608398438	-301.2649536132812	216.7354888916016	799.5323486328125	-246.123779296875	72.57463836669922	119.4755249023438	-314.1156005859375	276.1881408691406	423.8256225585938	-299.3145751953125	268.6161499023438	71.59247589111328	-373.1846923828125	207.9143676757812	81.90923309326172	-406.0687561035156	191.0875244140625	90.31432342529297	-309.3807678222656	25.29266738891602	136.1422271728516	-366.6000366210938	
361	3.6	2.026045083999634	1022.150512695312	-287.0070495605469	-38.51220321655273	1019.318481445312	-453.255615234375	-19.79899978637695	1089.478271484375	-383.3512268066406	243.9132995605469	1273.586181640625	-425.5144958496094	-24.31301116943359	1219.042236328125	-399.0450744628906	45.66779327392578	1483.557739257812	-411.6589050292969	219.3378143310547	1389.141479492188	-423.6633911132812	-17.89764976501465	1348.75146484375	-332.41455078125	11.16523170471191	1447.922241210938	-506.6188659667969	104.4553375244141	1453.762939453125	-588.4288940429688	66.40294647216797	1338.059448242188	-673.458984375	67.18119812011719	1129.480102539062	-723.0398559570312	24.51129531860352	1102.818115234375	-628.896484375	186.3856811523438	896.0519409179688	-706.4407348632812	116.7913284301758	884.2276611328125	-752.115478515625	90.53716278076172	1023.107238769531	-745.9978637695312	214.6918792724609	713.5033569335938	-708.7197265625	157.2386322021484	808.05029296875	-765.5015869140625	215.9479217529297	819.0916137695312	-725.5509033203125	117.1904525756836	1445.685546875	-243.7444152832031	100.3624649047852	1383.514038085938	-179.7088775634766	28.84318542480469	1137.181030273438	-122.2458801269531	49.77856063842773	1102.739868164062	-213.2277984619141	175.7532653808594	886.3740844726562	-147.5145111083984	106.1101837158203	866.5015258789062	-99.89926910400391	38.10220718383789	1052.673095703125	-106.7603454589844	184.7638244628906	705.1782836914062	-181.8587951660156	207.0258178710938	786.7254028320312	-148.9698181152344	148.0872650146484	777.5637817382812	-98.51641845703125	141.7107696533203	1668.557373046875	-493.5807800292969	231.2170715332031	1672.192138671875	-296.4076232910156	295.7620849609375	1690.178833007812	-404.7083129882812	80.73326873779297	1642.651977539062	-373.5673217773438	41.71293640136719	958.087646484375	-564.6528930664062	85.58502960205078	954.0186157226562	-220.2077178955078	199.8665008544922	974.5831298828125	-270.5363159179688	162.6407470703125	964.5590209960938	-535.9183349609375	135.3970947265625	498.9004211425781	-555.958740234375	94.03219604492188	639.5177001953125	-578.8909301757812	-5.907295703887939	44.96797180175781	-588.5557861328125	59.42820358276367	261.6850891113281	-585.3837280273438	199.6375885009766	38.80770874023438	-597.8433837890625	156.0471343994141	41.4770622253418	-540.0530395507812	93.12293243408203	33.71581268310547	-635.2576904296875	-52.88272476196289	44.10287475585938	-509.8569030761719	328.5627136230469	550.0715942382812	-299.8320007324219	222.7234649658203	800.396728515625	-245.8922882080078	99.8341064453125	109.7660675048828	-322.3045043945312	288.2137756347656	423.2023010253906	-299.4839782714844	300.0830078125	72.40884399414062	-374.5052795410156	240.1067199707031	79.68273162841797	-409.4421997070312	219.3667907714844	86.70742034912109	-313.4426574707031	53.56510162353516	124.274040222168	-376.3154602050781	
